# xmcd
#
# Track frame offsets: 
#        150
#        11890
#        26156
#        38772
#        51519
#        64718
#        80033
#        93397
#        107610
#        119257
#        132568
#        147995
#        159646
#        172178
#        186677
#        199396
#        210995
#        222452
#        237820
#        252745
#        268399
#        281764
#        292850
#        305712
#        320094
#
# Disc length: 4455 seconds
#
# Revision: 0
# Processed by: cddbd v1.4PL0 Copyright (c) Steve Scherf et al.
# Submitted via: ExactAudioCopy v0.95a4
#
DISCID=9e116519
DTITLE=Various Artist - Banana In Your Fruitbasket
DYEAR=2000
DGENRE=Blues
TTITLE0=Robert Johnson - Phonograph Blues
TTITLE1=Bo Carter - Banana in Your Fruitbasket
TTITLE2=Memphis Minnie - Bumble Bee
TTITLE3=Blind Boy Fuller - Sweet Honey Hole
TTITLE4=Big Bill Broonzy - I Want My Hands On It
TTITLE5=Carl Rafferty - Dresser With The Drawers
TTITLE6=The Honeydripper - Hard Lead Pencil
TTITLE7=Kansas City Kitty and Georgia Tom - Show Me What You've Got
TTITLE8=Tampa Red - Let Me Play With Your Poodle
TTITLE9=Blind Squire Turner - She Thinks She's Slick
TTITLE10=Lizzie Miles - My Man O' War
TTITLE11=Alex Moore - Blue Bloomer Blues
TTITLE12=Jimmie Gordon - Little Red Dress (Drawers)
TTITLE13=Georgia Pine Boy - One More Greasing
TTITLE14=Blind Squire Turner - Don't Like The Way You Do
TTITLE15=Napoleon Fletcher - She Showed It All
TTITLE16=Kansas City Kitty and Georgia Tom - Fish House Blues
TTITLE17=Charlie Lincoln - Doodle Hole Blues
TTITLE18=Lonnie Johnson - Wipe It Off
TTITLE19=Walter Davis - Think You Need A Shot
TTITLE20=Lil Johnson - My Stove's In Good Condition
TTITLE21=Dirty Red - Mother Fuyer
TTITLE22=Charlie Pickett - Let Me Squeeze Your Lemon
TTITLE23=Barbecue Bob - She Shook Her Gin
TTITLE24=Lucille Bogan - Shave 'em Dry
EXTD=
EXTT0=
EXTT1=
EXTT2=
EXTT3=
EXTT4=
EXTT5=
EXTT6=
EXTT7=
EXTT8=
EXTT9=
EXTT10=
EXTT11=
EXTT12=
EXTT13=
EXTT14=
EXTT15=
EXTT16=
EXTT17=
EXTT18=
EXTT19=
EXTT20=
EXTT21=
EXTT22=
EXTT23=
EXTT24=
PLAYORDER=
